<svg width="117" height="26" viewBox="0 0 117 26" fill="none" xmlns="http://www.w3.org/2000/svg">
<path d="M13.6073 16.652H6.53328L5.39928 20H0.566277L7.42428 1.046H12.7703L19.6283 20H14.7413L13.6073 16.652ZM12.4193 13.088L10.0703 6.149L7.74828 13.088H12.4193ZM26.3325 0.0199997V20H21.7155V0.0199997H26.3325ZM43.8804 12.224C43.8804 12.656 43.8534 13.106 43.7994 13.574H33.3504C33.4224 14.51 33.7194 15.23 34.2414 15.734C34.7814 16.22 35.4384 16.463 36.2124 16.463C37.3644 16.463 38.1654 15.977 38.6154 15.005H43.5294C43.2774 15.995 42.8184 16.886 42.1524 17.678C41.5044 18.47 40.6854 19.091 39.6954 19.541C38.7054 19.991 37.5984 20.216 36.3744 20.216C34.8984 20.216 33.5844 19.901 32.4324 19.271C31.2804 18.641 30.3804 17.741 29.7324 16.571C29.0844 15.401 28.7604 14.033 28.7604 12.467C28.7604 10.901 29.0754 9.533 29.7054 8.363C30.3534 7.193 31.2534 6.293 32.4054 5.663C33.5574 5.033 34.8804 4.718 36.3744 4.718C37.8324 4.718 39.1284 5.024 40.2624 5.636C41.3964 6.248 42.2784 7.121 42.9084 8.255C43.5564 9.389 43.8804 10.712 43.8804 12.224ZM39.1554 11.009C39.1554 10.217 38.8854 9.587 38.3454 9.119C37.8054 8.651 37.1304 8.417 36.3204 8.417C35.5464 8.417 34.8894 8.642 34.3494 9.092C33.8274 9.542 33.5034 10.181 33.3774 11.009H39.1554ZM60.5181 12.224C60.5181 12.656 60.4911 13.106 60.4371 13.574H49.9881C50.0601 14.51 50.3571 15.23 50.8791 15.734C51.4191 16.22 52.0761 16.463 52.8501 16.463C54.0021 16.463 54.8031 15.977 55.2531 15.005H60.1671C59.9151 15.995 59.4561 16.886 58.7901 17.678C58.1421 18.47 57.3231 19.091 56.3331 19.541C55.3431 19.991 54.2361 20.216 53.0121 20.216C51.5361 20.216 50.2221 19.901 49.0701 19.271C47.9181 18.641 47.0181 17.741 46.3701 16.571C45.7221 15.401 45.3981 14.033 45.3981 12.467C45.3981 10.901 45.7131 9.533 46.3431 8.363C46.9911 7.193 47.8911 6.293 49.0431 5.663C50.1951 5.033 51.5181 4.718 53.0121 4.718C54.4701 4.718 55.7661 5.024 56.9001 5.636C58.0341 6.248 58.9161 7.121 59.5461 8.255C60.1941 9.389 60.5181 10.712 60.5181 12.224ZM55.7931 11.009C55.7931 10.217 55.5231 9.587 54.9831 9.119C54.4431 8.651 53.7681 8.417 52.9581 8.417C52.1841 8.417 51.5271 8.642 50.9871 9.092C50.4651 9.542 50.1411 10.181 50.0151 11.009H55.7931ZM72.1338 4.772C73.8978 4.772 75.3018 5.348 76.3458 6.5C77.4078 7.634 77.9388 9.2 77.9388 11.198V20H73.3488V11.819C73.3488 10.811 73.0878 10.028 72.5658 9.47C72.0438 8.912 71.3418 8.633 70.4598 8.633C69.5778 8.633 68.8758 8.912 68.3538 9.47C67.8318 10.028 67.5708 10.811 67.5708 11.819V20H62.9538V4.934H67.5708V6.932C68.0388 6.266 68.6688 5.744 69.4608 5.366C70.2528 4.97 71.1438 4.772 72.1338 4.772ZM80.2291 12.44C80.2291 10.892 80.5171 9.533 81.0931 8.363C81.6871 7.193 82.4881 6.293 83.4961 5.663C84.5041 5.033 85.6291 4.718 86.8711 4.718C87.9331 4.718 88.8601 4.934 89.6521 5.366C90.4621 5.798 91.0831 6.365 91.5151 7.067V4.934H96.1321V20H91.5151V17.867C91.0651 18.569 90.4351 19.136 89.6251 19.568C88.8331 20 87.9061 20.216 86.8441 20.216C85.6201 20.216 84.5041 19.901 83.4961 19.271C82.4881 18.623 81.6871 17.714 81.0931 16.544C80.5171 15.356 80.2291 13.988 80.2291 12.44ZM91.5151 12.467C91.5151 11.315 91.1911 10.406 90.5431 9.74C89.9131 9.074 89.1391 8.741 88.2211 8.741C87.3031 8.741 86.5201 9.074 85.8721 9.74C85.2421 10.388 84.9271 11.288 84.9271 12.44C84.9271 13.592 85.2421 14.51 85.8721 15.194C86.5201 15.86 87.3031 16.193 88.2211 16.193C89.1391 16.193 89.9131 15.86 90.5431 15.194C91.1911 14.528 91.5151 13.619 91.5151 12.467ZM116.833 21.107V25.535H100.093V21.107H116.833Z" fill="#CFCFCF"/>
</svg>
